<svg width="197" height="366" viewBox="0 0 197 366" fill="none" xmlns="http://www.w3.org/2000/svg">
<path d="M-98.9512 201.87L95.1292 80.9523M117.411 240.266L91.4997 198.678M34.2334 292.088L34.3721 292.002M75.8221 266.177L75.9607 266.091M49.9111 224.589L50.0497 224.502M8.3224 250.5L8.46103 250.413M65.5887 157.089L65.7273 157.003M24 183L24.1387 182.914M-17.5886 208.911L-17.45 208.825M49.0542 340.587L154.412 274.945C169.94 265.271 177.705 260.434 181.752 253.717C185.313 247.809 186.912 240.924 186.32 234.052C185.647 226.238 180.809 218.474 171.135 202.946L70.9456 42.1362C61.2713 26.6084 56.434 18.8443 49.7168 14.7964C43.809 11.2351 36.9243 9.6365 30.0517 10.2285C22.2384 10.9015 14.4737 15.7391 -1.05409 25.4134L-106.412 91.0547C-121.94 100.729 -129.704 105.566 -133.752 112.283C-137.313 118.192 -138.912 125.076 -138.32 131.949C-137.646 139.762 -132.809 147.526 -123.135 163.054L-22.9455 323.864C-13.2712 339.392 -8.43361 347.156 -1.71673 351.204C4.19145 354.765 11.0759 356.364 17.9486 355.771C25.7623 355.098 33.5262 350.261 49.0542 340.587Z" stroke="url(#paint0_linear_1_29)" stroke-width="20" stroke-linecap="round" stroke-linejoin="round"/>
<defs>
<linearGradient id="paint0_linear_1_29" x1="-53.7331" y1="58.234" x2="101.733" y2="307.766" gradientUnits="userSpaceOnUse">
<stop stop-color="#0A005E"/>
<stop offset="1" stop-color="#1500C4"/>
</linearGradient>
</defs>
</svg>
